<svg width="24" height="24" viewBox="0 0 24 24" id="sidebar"
	xmlns="http://www.w3.org/2000/svg">
	<path d="M4 5V19C4.00326 19.4633 4.23306 19.9069 4.63956 20.2345C5.04605 20.5622 5.59644 20.7474 6.1713 20.75H18.5787C19.1536 20.7474 19.704 20.5622 20.1104 20.2345C20.5169 19.9069 20.7467 19.4633 20.75 19V5C20.7467 4.53668 20.5169 4.09308 20.1104 3.76546C19.704 3.43784 19.1536 3.25263 18.5787 3.25H6.1713C5.59644 3.25263 5.04605 3.43784 4.63956 3.76546C4.23306 4.09308 4.00326 4.53668 4 5ZM5.86111 19V5C5.86111 4.9337 5.89379 4.87011 5.95196 4.82322C6.01013 4.77634 6.08903 4.75 6.1713 4.75H8.96296V19.25H6.1713C6.08903 19.25 6.01013 19.2237 5.95196 19.1768C5.89379 19.1299 5.86111 19.0663 5.86111 19ZM18.8889 5V19C18.8889 19.0663 18.8562 19.1299 18.798 19.1768C18.7399 19.2237 18.661 19.25 18.5787 19.25H10.8241V4.75H18.5787C18.661 4.75 18.7399 4.77634 18.798 4.82322C18.8562 4.87011 18.8889 4.9337 18.8889 5Z"/>
</svg>
