<svg xmlns="http://www.w3.org/2000/svg" width="410" height="360" fill="none"><g filter="url(#a)"><path fill="#218EC7" d="M170.531 204.356c8.924-1.267 19.608-8.468 22.282-6.017 2.674 2.451 1.443 6.754 3.342 10.696 1.426 2.958 3.482 3.994 4.457 7.13 1.136 3.656 1.136 6.148 0 9.804-.975 3.136-2.643 4.393-4.457 7.131-7.641 11.536-12.975 17.367-22.728 27.184-9.352 9.414-16.932 12.23-25.847 22.059-6.98 7.696-10.637 12.387-15.82 21.391-4.84 8.408-10.027 22.728-10.027 22.728s-3.747 14.966-10.473 21.391c-3.735 3.568-6.148 5.804-11.141 7.13-4.205 1.117-7.085 1.575-11.141 0-3.907-1.517-6.133-3.388-8.022-7.13-2.313-4.583-.598-8.048 0-13.147 1.272-10.833 5.178-16.299 10.027-26.07 3.868-7.793 11.438-10.462 11.364-19.162-.032-3.757.581-6.864-2.228-9.359-3.253-2.889-6.983-.919-11.141 0-4.923 1.088-10.716.188-12.032-4.679-1.636-6.044 4.01-9.832 4.01-15.152 0-3.817-.705-7.004-4.01-8.913-2.75-1.588-5.237-2.983-8.913-4.011-4.087-1.142-6.686-1.591-10.696-3.342-7.206-3.148-7.018-4.045-9.434-8.05-2.878-4.771-2.983-8.674-2.598-14.232.545-7.861 4.073-12.488 10.25-17.38 5.18-4.105 9.412-4.395 15.82-6.017 7.471-1.891 11.903-2.387 19.608-2.228 9.198.191 14.092 2.768 23.174 4.234 11.615 1.874 18.116 3.276 29.858 4.011 10.335.646 16.264 1.455 26.516 0Z"/></g><g filter="url(#b)"><path fill="#0EABE2" d="M167.504 122.733c15.203 14.912 34.092 39.439 34.092 42.559 0 3.119-3.788 0-5.57 10.027-1.783 10.027 0 21.391 0 29.19 0 7.798-14.53 5.109-24.065 4.456-9.609-.658-14.881-3.3-23.396-7.799-5.869-3.1-7.609-7.934-14.038-9.581-8.65-2.216-13.665 7.464-22.282 5.125-4.096-1.112-6.198-2.564-9.582-5.125-4.575-3.463-5.02-7.659-9.581-11.141-3.312-2.528-5.46-3.654-9.359-5.125-9.85-3.717-16.624 2.003-26.961 0-5.81-1.126-9.048-2.117-14.484-4.457-6.305-2.713-10.156-4.204-15.151-8.912-7.056-6.65-10.385-11.837-14.261-20.723-5.835-13.377-8.173-22.209-10-36.689-1.449-11.482-.812-18.536 0-30.08 1.537-21.837 2.453-23.843 4.01-30.75 1.891-8.384 4.056-13.631 8.441-21.022 3.489-5.88 11.81-12.924 11.81-12.924S40.154-1.859 46.093.258c3.201 1.14 3.788 4.4 3.788 7.798 0 4.457-1.613 4.903-.918 10.173 1.161 8.8 5.842 12.623 10.696 20.054 4.073 6.237 6.495 9.715 11.586 15.152 7.45 7.957 12.864 11.193 21.837 17.38 8.833 6.092 14.475 8.424 23.619 14.038 8.6 5.28 13.604 7.98 21.837 13.815 11.998 8.505 18.467 13.766 28.966 24.065Z"/></g><path fill="#1785BE" d="M22.055 113.639c-11.12-8.581-20.053-24.51-20.053-24.51s-.157 14.418 2.673 26.738c1.985 8.638 3.042 15.276 8.468 22.283 2.449 3.162 2.637 4.004 5.793 6.462 5.405 4.207 8.998 6.188 15.597 8.021 8.72 2.423 14.321 1.879 23.174 0 7.936-1.685 11.985-4.241 19.163-8.021 9.631-5.074 14.542-8.907 22.95-15.821 8.556-7.035 13.97-10.726 20.277-19.831 4.188-6.047 8.69-16.712 8.69-16.712l-8.69-5.347s-11.788 11.795-20.277 18.048c-8.459 6.232-13.157 10.234-22.95 14.038-12.298 4.776-20.505 7.574-33.424 4.902-9.07-1.876-14.057-4.591-21.39-10.25Z"/><g filter="url(#c)"><path fill="#218EC7" d="M238.953 204.356c-8.924-1.267-19.609-8.468-22.283-6.017-2.673 2.451-1.442 6.754-3.342 10.696-1.425 2.958-3.482 3.994-4.456 7.13-1.136 3.656-1.136 6.148 0 9.804.974 3.136 2.643 4.393 4.456 7.131 7.641 11.536 12.976 17.367 22.728 27.184 9.352 9.414 16.932 12.23 25.847 22.059 6.98 7.696 10.637 12.387 15.821 21.391 4.84 8.408 10.027 22.728 10.027 22.728s3.747 14.966 10.472 21.391c3.736 3.568 6.149 5.804 11.141 7.13 4.205 1.117 7.086 1.575 11.141 0 3.907-1.517 6.133-3.388 8.022-7.13 2.313-4.583.599-8.048 0-13.147-1.272-10.833-5.177-16.299-10.027-26.07-3.868-7.793-11.437-10.462-11.364-19.162.032-3.757-.58-6.864 2.228-9.359 3.253-2.889 6.983-.919 11.141 0 4.923 1.088 10.716.188 12.033-4.679 1.635-6.044-4.011-9.832-4.011-15.152 0-3.817.705-7.004 4.011-8.913 2.749-1.588 5.237-2.983 8.913-4.011 4.086-1.142 6.685-1.591 10.695-3.342 7.206-3.148 7.019-4.045 9.434-8.05 2.878-4.771 2.984-8.674 2.599-14.232-.545-7.861-4.074-12.488-10.25-17.38-5.181-4.105-9.413-4.395-15.821-6.017-7.471-1.891-11.903-2.387-19.608-2.228-9.198.191-14.091 2.768-23.173 4.234-11.615 1.874-18.116 3.276-29.859 4.011-10.334.646-16.263 1.455-26.515 0Z"/></g><g filter="url(#d)"><path fill="#0EABE2" d="M241.979 122.733c-15.202 14.912-34.091 39.439-34.091 42.559 0 3.119 3.788 0 5.57 10.027 1.783 10.027 0 21.391 0 29.19 0 7.798 14.53 5.109 24.065 4.456 9.609-.658 14.88-3.3 23.396-7.799 5.869-3.1 7.608-7.934 14.038-9.581 8.65-2.216 13.665 7.464 22.282 5.125 4.095-1.112 6.198-2.564 9.582-5.125 4.575-3.463 5.019-7.659 9.581-11.141 3.312-2.528 5.46-3.654 9.359-5.125 9.851-3.717 16.624 2.003 26.961 0 5.81-1.126 9.048-2.117 14.483-4.457 6.306-2.713 10.157-4.204 15.152-8.912 7.055-6.65 10.385-11.837 14.261-20.723 5.835-13.377 8.173-22.209 10-36.689 1.449-11.482.812-18.536 0-30.08-1.537-21.837-2.453-23.843-4.011-30.75-1.89-8.384-4.055-13.631-8.44-21.022-3.489-5.88-11.81-12.924-11.81-12.924S369.329-1.859 363.39.258c-3.2 1.14-3.788 4.4-3.788 7.798 0 4.457 1.614 4.903.919 10.173-1.161 8.8-5.842 12.623-10.696 20.054-4.073 6.237-6.495 9.715-11.586 15.152-7.449 7.957-12.865 11.193-21.837 17.38-8.833 6.092-14.475 8.424-23.619 14.038-8.6 5.28-13.604 7.98-21.837 13.815-11.998 8.505-18.468 13.766-28.967 24.065Z"/></g><path fill="#1785BE" d="M387.428 113.639c11.121-8.581 20.054-24.51 20.054-24.51s.156 14.418-2.674 26.738c-1.984 8.638-3.041 15.276-8.467 22.283-2.449 3.162-2.637 4.004-5.794 6.462-5.404 4.207-8.997 6.188-15.597 8.021-8.72 2.423-14.321 1.879-23.174 0-7.935-1.685-11.984-4.241-19.162-8.021-9.632-5.074-14.542-8.907-22.951-15.821-8.555-7.035-13.97-10.726-20.277-19.831-4.188-6.047-8.69-16.712-8.69-16.712l8.69-5.347s11.788 11.795 20.277 18.048c8.459 6.232 13.157 10.234 22.951 14.038 12.297 4.776 20.504 7.574 33.423 4.902 9.071-1.876 14.057-4.591 21.391-10.25Z"/><rect width="17.826" height="113.639" x="198.754" y="144.611" fill="#38485B" stroke="#154761" stroke-width=".446" rx="8.913"/><path stroke="#38485B" stroke-width="2.228" d="M212.791 148.399c4.851-40.377 15.523-61.628 54.814-94.922m-65.955 94.922c-4.851-40.377-15.523-61.628-54.814-94.922"/><g filter="url(#e)"><rect width="28.521" height="56.597" x="193.183" y="158.649" fill="#38485B" rx="14.261"/><rect width="28.076" height="56.151" x="193.405" y="158.872" stroke="#154761" stroke-width=".446" rx="14.038"/></g><defs><filter id="a" width="159.885" height="163.482" x="43.361" y="196.083" color-interpolation-filters="sRGB" filterUnits="userSpaceOnUse"><feFlood flood-opacity="0" result="BackgroundImageFix"/><feColorMatrix in="SourceAlpha" result="hardAlpha" values="0 0 0 0 0 0 0 0 0 0 0 0 0 0 0 0 0 0 127 0"/><feOffset dy="1.783"/><feGaussianBlur stdDeviation=".891"/><feComposite in2="hardAlpha" operator="out"/><feColorMatrix values="0 0 0 0 0 0 0 0 0 0 0 0 0 0 0 0 0 0 0.25 0"/><feBlend in2="BackgroundImageFix" result="effect1_dropShadow_3_105"/><feBlend in="SourceGraphic" in2="effect1_dropShadow_3_105" result="shape"/></filter><filter id="b" width="203.159" height="213.508" x=".219" y="0" color-interpolation-filters="sRGB" filterUnits="userSpaceOnUse"><feFlood flood-opacity="0" result="BackgroundImageFix"/><feColorMatrix in="SourceAlpha" result="hardAlpha" values="0 0 0 0 0 0 0 0 0 0 0 0 0 0 0 0 0 0 127 0"/><feOffset dy="1.783"/><feGaussianBlur stdDeviation=".891"/><feComposite in2="hardAlpha" operator="out"/><feColorMatrix values="0 0 0 0 0 0 0 0 0 0 0 0 0 0 0 0 0 0 0.25 0"/><feBlend in2="BackgroundImageFix" result="effect1_dropShadow_3_105"/><feBlend in="SourceGraphic" in2="effect1_dropShadow_3_105" result="shape"/></filter><filter id="c" width="159.885" height="163.482" x="206.237" y="196.083" color-interpolation-filters="sRGB" filterUnits="userSpaceOnUse"><feFlood flood-opacity="0" result="BackgroundImageFix"/><feColorMatrix in="SourceAlpha" result="hardAlpha" values="0 0 0 0 0 0 0 0 0 0 0 0 0 0 0 0 0 0 127 0"/><feOffset dy="1.783"/><feGaussianBlur stdDeviation=".891"/><feComposite in2="hardAlpha" operator="out"/><feColorMatrix values="0 0 0 0 0 0 0 0 0 0 0 0 0 0 0 0 0 0 0.25 0"/><feBlend in2="BackgroundImageFix" result="effect1_dropShadow_3_105"/><feBlend in="SourceGraphic" in2="effect1_dropShadow_3_105" result="shape"/></filter><filter id="d" width="203.159" height="213.508" x="206.105" y="0" color-interpolation-filters="sRGB" filterUnits="userSpaceOnUse"><feFlood flood-opacity="0" result="BackgroundImageFix"/><feColorMatrix in="SourceAlpha" result="hardAlpha" values="0 0 0 0 0 0 0 0 0 0 0 0 0 0 0 0 0 0 127 0"/><feOffset dy="1.783"/><feGaussianBlur stdDeviation=".891"/><feComposite in2="hardAlpha" operator="out"/><feColorMatrix values="0 0 0 0 0 0 0 0 0 0 0 0 0 0 0 0 0 0 0.25 0"/><feBlend in2="BackgroundImageFix" result="effect1_dropShadow_3_105"/><feBlend in="SourceGraphic" in2="effect1_dropShadow_3_105" result="shape"/></filter><filter id="e" width="32.086" height="60.162" x="191.4" y="158.649" color-interpolation-filters="sRGB" filterUnits="userSpaceOnUse"><feFlood flood-opacity="0" result="BackgroundImageFix"/><feColorMatrix in="SourceAlpha" result="hardAlpha" values="0 0 0 0 0 0 0 0 0 0 0 0 0 0 0 0 0 0 127 0"/><feOffset dy="1.783"/><feGaussianBlur stdDeviation=".891"/><feComposite in2="hardAlpha" operator="out"/><feColorMatrix values="0 0 0 0 0 0 0 0 0 0 0 0 0 0 0 0 0 0 0.25 0"/><feBlend in2="BackgroundImageFix" result="effect1_dropShadow_3_105"/><feBlend in="SourceGraphic" in2="effect1_dropShadow_3_105" result="shape"/></filter></defs></svg>